PathFileType	4	(X/Y/Z)	OpenSim_Sub10_CSBaseline_Magnet.trc
DataRate	CameraRate	NumFrames	NumMarkers	Units	OrigDataRate	OrigDataStartFrame	OrigNumFrames
100	100	20	8	m	100	1	9111
Frame#	Time	torso_imu_offset_imu	pelvis_imu_offset_imu	tibia_r_imu_offset_imu	femur_r_imu_offset_imu	tibia_l_imu_offset_imu	femur_l_imu_offset_imu	toes_r_imu_offset_imu	toes_l_imu_offset_imu
				X1	Y1	Z1	X2	Y2	Z2	X3	Y3	Z3	X4	Y4	Z4	X5	Y5	Z5	X6	Y6	Z6	X7	Y7	Z7	X8		Y8	Z8	

1	0	-0.96229273	-0.06493883	0.04692586	-0.65301400	0.11460693	-0.69564095	-0.66855001	-0.56707683	-0.30429070	-0.71501065	-0.44581670	-0.03872932	-0.63314022	0.51083058	0.18456012	-0.70381733	0.15614986	0.22437235	-0.63373799	-0.30773973	-0.42643980	-0.69848270	-0.20010433	-0.41078913
2	0.01000000	-0.95629880	-0.05939232	0.04243503	-0.65421129	0.11336635	-0.69329565	-0.67082185	-0.56347252	-0.30704332	-0.72000146	-0.44792655	-0.04497526	-0.63978130	0.50657779	0.18087055	-0.70405751	0.16423193	0.22363236	-0.63345390	-0.30399705	-0.43003221	-0.69835414	-0.19739819	-0.41460455
3	0.02000000	-0.95881493	-0.06390993	0.04288724	-0.64994891	0.10808953	-0.69729779	-0.67048277	-0.56551404	-0.30562390	-0.72321612	-0.44595002	-0.03538393	-0.63643075	0.50852670	0.18302558	-0.70406286	0.15955464	0.21529677	-0.63371836	-0.30854081	-0.42595073	-0.69447424	-0.19551091	-0.40857567
4	0.03000000	-0.96091137	-0.06116886	0.04236356	-0.65039815	0.11428952	-0.69029103	-0.66825347	-0.56563175	-0.31623970	-0.71697834	-0.45019023	-0.03362935	-0.63318799	0.50461914	0.18309317	-0.70592840	0.16004685	0.21958980	-0.63553429	-0.31036329	-0.42793391	-0.70172694	-0.19549985	-0.41728322
5	0.04000000	-0.96008964	-0.05923736	0.04077016	-0.65030274	0.11179301	-0.69056311	-0.66885088	-0.57005236	-0.31107970	-0.72175867	-0.44737199	-0.03435270	-0.64192146	0.51132061	0.18272764	-0.70403666	0.15972775	0.21567456	-0.63311100	-0.31021950	-0.42617239	-0.70553751	-0.19323568	-0.41004665
6	0.05000000	-0.95446560	-0.05943930	0.04418336	-0.65236250	0.11233013	-0.68826001	-0.67226826	-0.57152693	-0.31145967	-0.72139905	-0.44422846	-0.03562937	-0.63436005	0.50828756	0.18042278	-0.70850587	0.15759653	0.22490153	-0.62920424	-0.30765361	-0.43046132	-0.70322006	-0.19136658	-0.41315661
7	0.06000000	-0.96117999	-0.05895948	0.03374060	-0.65011510	0.11384189	-0.69080959	-0.66821942	-0.56738910	-0.31125312	-0.72125920	-0.44992815	-0.02697637	-0.63536238	0.50402954	0.18149553	-0.70824791	0.15777994	0.22139982	-0.62946738	-0.30388940	-0.42708634	-0.70307162	-0.19588677	-0.41259625
8	0.07000000	-0.96066841	-0.05809351	0.04285553	-0.65062784	0.10944785	-0.68751781	-0.66844134	-0.56770596	-0.30664810	-0.71958721	-0.44580880	-0.03685785	-0.63911698	0.50517629	0.18501628	-0.70801036	0.16049570	0.21503059	-0.62929622	-0.30646370	-0.41965155	-0.70050152	-0.19522220	-0.41026740
9	0.08000000	-0.95835303	-0.06534144	0.03812246	-0.65685831	0.10765343	-0.68414141	-0.66583742	-0.57014702	-0.30196868	-0.72129918	-0.45017724	-0.03562193	-0.63246062	0.51330268	0.17569893	-0.70371121	0.16393760	0.21545328	-0.62972188	-0.30815975	-0.42686179	-0.69917958	-0.19365213	-0.41051681
10	0.09000000	-0.95900388	-0.05459414	0.03830024	-0.65627304	0.10785985	-0.69317686	-0.66445799	-0.57359242	-0.30056665	-0.71689289	-0.44756710	-0.03129183	-0.63564144	0.50847325	0.18144256	-0.70446361	0.15764193	0.21514830	-0.63369551	-0.30810355	-0.43253263	-0.70551450	-0.19808379	-0.41331054
11	0.10000000	-0.96340806	-0.05791280	0.04046840	-0.65409396	0.10786748	-0.68744897	-0.67073509	-0.56770334	-0.31016221	-0.71494771	-0.44605262	-0.03155659	-0.63926211	0.50874006	0.18236562	-0.71083095	0.16210147	0.21595212	-0.63114496	-0.30805409	-0.43424731	-0.70297125	-0.19537967	-0.41442141
12	0.11000000	-0.96426884	-0.06190225	0.04316772	-0.65214090	0.10975758	-0.68364648	-0.67043421	-0.57148877	-0.31348597	-0.71545003	-0.45013928	-0.03144583	-0.63469542	0.50638069	0.17395428	-0.70847172	0.16211905	0.22178282	-0.62978913	-0.30571455	-0.43191295	-0.70294748	-0.19876701	-0.40564258
13	0.12000000	-0.95580958	-0.06058034	0.04433883	-0.65251055	0.10516521	-0.68907634	-0.67030965	-0.56555576	-0.30820829	-0.71928943	-0.44747515	-0.03162653	-0.63489539	0.50397099	0.17899492	-0.71077715	0.16352335	0.21490085	-0.63609872	-0.30483790	-0.42988073	-0.69782629	-0.20418435	-0.40854916
14	0.13000000	-0.95716617	-0.05097940	0.03508774	-0.65642585	0.10397367	-0.69513509	-0.66884022	-0.57191980	-0.30067616	-0.71720325	-0.44646255	-0.03425697	-0.63449274	0.50279680	0.17895216	-0.71065447	0.15781389	0.21541135	-0.63531506	-0.31224516	-0.42812846	-0.69746283	-0.19718778	-0.41069724
15	0.14000000	-0.95848337	-0.05773303	0.03627157	-0.65203563	0.11006458	-0.69289243	-0.67672838	-0.56728885	-0.30941911	-0.71962707	-0.45410183	-0.03577054	-0.63021690	0.51129381	0.18004722	-0.71271542	0.16651932	0.21544577	-0.63321138	-0.30573779	-0.42999646	-0.70785206	-0.19580026	-0.41269859
16	0.15000000	-0.95700558	-0.05478115	0.04081953	-0.65252098	0.10772547	-0.69503823	-0.67013702	-0.56771213	-0.30194012	-0.72120730	-0.45018453	-0.03072967	-0.63103832	0.50602095	0.17175207	-0.70821306	0.16142312	0.21479074	-0.63194374	-0.30616354	-0.42842882	-0.70044731	-0.19551713	-0.40761738
17	0.16000000	-0.96310347	-0.05580632	0.04185637	-0.65194006	0.10791729	-0.69284563	-0.67272883	-0.56762463	-0.30274605	-0.71672085	-0.45631591	-0.02700118	-0.63678372	0.50250975	0.17675983	-0.70861204	0.15958637	0.20830750	-0.63549645	-0.30392624	-0.43418635	-0.70090793	-0.19597706	-0.40652070
18	0.17000000	-0.95842879	-0.06147422	0.03661312	-0.64794841	0.10806734	-0.69532473	-0.67299218	-0.56755133	-0.30493707	-0.71736147	-0.44928603	-0.03388916	-0.63329550	0.50925808	0.17366560	-0.70798879	0.15821588	0.21118144	-0.63199199	-0.30442937	-0.42772818	-0.69857001	-0.19779632	-0.41268943
19	0.18000000	-0.96337576	-0.05729859	0.04445509	-0.65007969	0.10986498	-0.69498343	-0.67645063	-0.56793399	-0.30727275	-0.71899275	-0.44828202	-0.02858700	-0.64159863	0.50838198	0.17187481	-0.70653545	0.16386396	0.21048698	-0.63720965	-0.30776924	-0.43031950	-0.69879413	-0.19794013	-0.41058972
20	0.19000000	-0.96220388	-0.05918420	0.03574000	-0.64809376	0.10763122	-0.69319865	-0.67029950	-0.56906220	-0.30664047	-0.71498491	-0.44958707	-0.02458746	-0.63443804	0.50411275	0.17493282	-0.71352060	0.15732488	0.20828743	-0.63020418	-0.30199769	-0.43045041	-0.69830748	-0.19988260	-0.41511218
